<svg xmlns="http://www.w3.org/2000/svg" viewBox="0 0 100 150">
    <rect id="frame" x="0" y="0" rx="6" ry="6"  width="100" height="150" fill="white"/>
    <rect x="5" y="5" rx="5" ry="5"  width="90" height="140" fill="black"/>
    <path d="M 50 75 L 50 48 A 27 27 0 0 1 77 75 L 50 75 Z"  fill="#ada900"/>
    <path d="M 50 75 L 77 75 A 27 27 0 0 1 50 102 L 50 75 Z" fill="#a50000"/>
    <path d="M 50 75 L 23 75 A 27 27 0 0 0 50 102 L 50 75 Z" fill="#0a8000"/>
    <path d="M 50 75 L 50 48 A 27 27 0 0 0 23 75 L 50 75 Z"  fill="#0062e1"/>
    <text x="25" y="140.75" style="font-size:35.2px;font-family:Arial,sans-serif;font-weight:bold;" fill="#536482" transform="rotate(-60 25,140.75)">JavaUno</text>
</svg>